<?xml version="1.0" standalone="no"?>
<!DOCTYPE svg PUBLIC "-//W3C//DTD SVG 20010904//EN"
 "http://www.w3.org/TR/2001/REC-SVG-20010904/DTD/svg10.dtd">
<svg version="1.0" xmlns="http://www.w3.org/2000/svg"
 width="1024.000000pt" height="366.000000pt" viewBox="0 0 1024.000000 366.000000"
 preserveAspectRatio="xMidYMid meet" fill="none">

<g transform="translate(0.000000,366.000000) scale(0.100000,-0.100000)"
fill="#000" stroke="none">
<path d="M742 3036 c-197 -108 -367 -329 -428 -556 -22 -83 -22 -210 0 -270
40 -107 138 -207 231 -236 39 -11 47 -11 60 2 8 9 15 17 15 19 0 2 -18 39 -40
82 -43 83 -60 152 -60 242 0 173 71 381 173 507 52 64 76 81 88 63 11 -18 0
-1470 -12 -1594 -5 -55 -20 -140 -34 -189 -36 -129 -11 -146 103 -69 90 61
154 168 188 314 15 66 17 162 21 846 3 538 1 777 -6 791 -17 31 -112 73 -178
78 -52 4 -65 1 -121 -30z"/>
<path d="M3452 3062 c-20 -13 -32 -71 -32 -153 0 -42 -3 -110 -6 -151 l-7 -75
-132 5 c-132 5 -133 5 -149 -20 -22 -33 -36 -116 -25 -145 8 -22 14 -23 101
-23 51 0 117 -3 147 -7 l54 -6 -6 -311 c-6 -345 -10 -371 -82 -490 -35 -59
-103 -146 -114 -146 -3 0 -6 33 -6 73 -1 133 -57 210 -272 369 -68 51 -123 96
-123 100 0 4 15 27 33 50 40 53 84 150 92 203 7 51 -10 85 -55 107 -99 50
-238 -11 -305 -133 -25 -45 -30 -65 -30 -125 0 -62 4 -77 32 -122 l31 -51 -90
-163 c-112 -204 -215 -358 -250 -378 -34 -19 -58 -7 -71 36 -4 16 -7 155 -5
309 1 154 2 328 3 387 l0 107 -33 34 c-19 19 -66 49 -104 67 -67 31 -73 32
-123 21 -136 -31 -237 -170 -355 -492 l-49 -134 -1 282 c0 316 4 301 -77 327
-78 25 -116 29 -136 14 -18 -13 -19 -43 -20 -553 -2 -583 -1 -595 50 -635 20
-16 41 -20 98 -20 46 0 76 5 83 12 5 7 15 47 22 88 43 272 161 600 285 790 41
64 100 128 109 119 3 -2 1 -87 -4 -189 -13 -251 -12 -531 1 -610 14 -90 50
-165 91 -190 72 -44 170 -17 264 71 77 74 134 154 269 384 65 110 123 206 130
213 17 19 204 -165 238 -233 50 -102 43 -190 -21 -246 -51 -45 -109 -38 -200
25 -37 25 -76 46 -86 46 -28 0 -93 -74 -107 -120 -17 -56 -2 -82 63 -114 72
-35 224 -60 308 -51 217 23 390 162 495 399 21 46 23 48 28 26 3 -14 12 -61
21 -104 18 -88 59 -184 100 -233 61 -72 194 -105 269 -67 81 42 151 125 204
241 l26 57 12 -40 c21 -70 77 -164 123 -204 146 -129 380 -76 508 114 21 31
35 44 38 35 42 -143 130 -219 252 -219 91 0 175 53 229 147 l28 46 15 -29 c21
-43 91 -113 137 -137 32 -18 57 -22 130 -22 79 0 97 3 149 29 34 17 83 54 117
89 l59 60 0 -59 0 -59 -111 -100 c-323 -291 -419 -431 -407 -590 9 -107 64
-181 173 -232 52 -24 73 -28 150 -28 80 0 97 3 150 29 72 36 154 115 188 182
64 127 87 276 87 572 l0 222 59 73 c136 169 293 443 371 650 l34 88 95 -3 c78
-2 96 -6 94 -18 0 -8 -11 -69 -23 -135 -29 -157 -32 -389 -6 -484 36 -132 95
-214 188 -260 129 -65 252 -26 334 103 l27 43 43 -57 c33 -46 57 -65 108 -90
61 -30 71 -32 143 -28 48 3 97 14 126 27 57 25 149 109 184 169 l26 43 17 -50
c23 -69 55 -113 113 -152 39 -27 60 -34 112 -37 35 -2 79 1 98 7 45 15 101 70
131 129 23 44 25 45 30 22 3 -14 7 -45 8 -69 4 -67 35 -85 151 -89 51 -1 98 2
106 7 18 12 29 89 30 206 1 122 17 241 47 355 41 158 117 340 142 340 5 0 12
-64 16 -142 16 -321 49 -544 91 -609 43 -67 153 -92 209 -48 24 19 26 27 26
92 0 143 51 390 117 567 74 197 70 203 76 -120 5 -304 14 -373 60 -474 88
-192 312 -239 423 -87 57 78 107 267 85 324 -24 62 -63 43 -87 -42 -47 -170
-72 -211 -129 -211 -42 0 -75 40 -100 120 -22 70 -32 324 -24 590 6 216 2 242
-48 278 -44 31 -133 63 -180 65 -31 2 -48 -4 -66 -21 -43 -41 -151 -352 -192
-554 -28 -141 -31 -130 -46 202 -13 296 -15 302 -104 345 -62 31 -142 38 -169
16 -29 -25 -67 -108 -132 -296 l-63 -180 0 206 c-1 188 -3 208 -20 231 -30 38
-186 67 -214 39 -9 -9 -13 -116 -17 -404 -6 -371 -7 -395 -28 -450 -30 -82
-72 -156 -100 -178 -36 -28 -88 -25 -116 6 -47 51 -51 89 -51 544 l0 424 -29
18 c-16 10 -60 23 -97 30 -60 11 -71 10 -93 -5 -19 -12 -26 -25 -26 -49 l0
-33 -54 52 c-42 41 -68 57 -112 70 -158 46 -299 -37 -394 -230 -68 -137 -83
-213 -84 -421 0 -99 1 -205 4 -235 6 -96 -58 -190 -130 -190 -31 0 -44 7 -69
35 -53 60 -66 126 -65 320 1 152 4 185 32 314 42 191 42 223 -2 267 -30 30
-40 34 -88 34 -29 0 -99 -9 -156 -20 -148 -29 -142 -30 -136 33 7 68 -18 111
-75 128 -83 25 -159 -13 -198 -97 -35 -77 -30 -147 16 -205 29 -35 32 -45 26
-77 -10 -54 -72 -215 -117 -306 -43 -86 -143 -252 -158 -261 -5 -3 -6 170 -3
409 l6 414 -34 21 c-40 25 -131 45 -164 37 -33 -9 -55 -33 -55 -63 0 -25 -3
-24 -54 25 -161 153 -381 86 -498 -151 -79 -159 -104 -301 -95 -538 6 -151 5
-158 -19 -210 -36 -78 -69 -109 -115 -109 -45 0 -82 38 -100 103 -19 68 -25
274 -18 583 7 287 7 289 -14 311 -21 21 -118 53 -162 53 -38 0 -65 -28 -65
-67 l0 -37 -34 40 c-43 51 -121 93 -185 101 -138 16 -262 -70 -349 -244 -43
-85 -71 -198 -83 -338 -14 -168 -24 -216 -58 -289 -36 -75 -107 -158 -151
-176 -28 -11 -34 -11 -58 7 -38 28 -63 102 -71 213 -7 96 5 796 14 838 5 22 7
22 170 22 l165 0 20 33 c14 22 20 46 18 77 l-3 45 -45 7 c-25 4 -107 10 -183
14 l-138 6 7 163 7 163 -24 15 c-27 17 -162 57 -194 57 -11 0 -26 -4 -33 -8z
m1111 -832 c74 -65 107 -227 88 -433 -22 -229 -78 -360 -177 -407 -38 -19 -49
-20 -79 -10 -81 27 -125 138 -132 335 -11 265 43 466 140 525 51 31 118 27
160 -10z m1151 9 c66 -52 91 -164 83 -378 -9 -262 -75 -430 -186 -478 -44 -19
-81 -9 -120 31 -100 104 -117 468 -30 688 41 106 101 158 180 158 32 0 55 -7
73 -21z m1992 2 c73 -44 112 -204 101 -410 -11 -194 -63 -350 -140 -416 -120
-103 -221 -8 -248 233 -28 247 32 521 129 587 46 31 113 34 158 6z m-1879
-1308 c-11 -326 -67 -470 -191 -488 -121 -18 -185 98 -132 240 30 80 122 210
224 316 52 55 97 99 100 99 3 0 2 -75 -1 -167z"/>
</g>
</svg>
